<?xml version="1.0" encoding="UTF-8" standalone="no"?>
<!-- Created with Inkscape (http://www.inkscape.org/) -->

<svg
   xmlns:dc="http://purl.org/dc/elements/1.1/"
   xmlns:cc="http://creativecommons.org/ns#"
   xmlns:rdf="http://www.w3.org/1999/02/22-rdf-syntax-ns#"
   xmlns:svg="http://www.w3.org/2000/svg"
   xmlns="http://www.w3.org/2000/svg"
   xmlns:sodipodi="http://sodipodi.sourceforge.net/DTD/sodipodi-0.dtd"
   xmlns:inkscape="http://www.inkscape.org/namespaces/inkscape"
   width="256"
   height="64"
   id="svg2"
   version="1.1"
   inkscape:version="0.48.4 r9939"
   sodipodi:docname="healthmeter.svg"
   inkscape:export-filename="/home/spencer/Dropbox/Programming/LD 27/res/healthmeter.png"
   inkscape:export-xdpi="90"
   inkscape:export-ydpi="90">
  <defs
     id="defs4" />
  <sodipodi:namedview
     id="base"
     pagecolor="#000000"
     bordercolor="#666666"
     borderopacity="1.0"
     inkscape:pageopacity="0"
     inkscape:pageshadow="2"
     inkscape:zoom="4"
     inkscape:cx="130.30357"
     inkscape:cy="9.5178572"
     inkscape:document-units="px"
     inkscape:current-layer="layer1"
     showgrid="false"
     inkscape:snap-bbox="true"
     inkscape:bbox-nodes="false"
     inkscape:snap-page="true"
     inkscape:snap-bbox-midpoints="true"
     inkscape:window-width="1278"
     inkscape:window-height="764"
     inkscape:window-x="511"
     inkscape:window-y="239"
     inkscape:window-maximized="0" />
  <metadata
     id="metadata7">
    <rdf:RDF>
      <cc:Work
         rdf:about="">
        <dc:format>image/svg+xml</dc:format>
        <dc:type
           rdf:resource="http://purl.org/dc/dcmitype/StillImage" />
        <dc:title></dc:title>
      </cc:Work>
    </rdf:RDF>
  </metadata>
  <g
     inkscape:label="Layer 1"
     inkscape:groupmode="layer"
     id="layer1"
     transform="translate(0,-988.36218)">
    <path
       sodipodi:type="arc"
       style="color:#bebebe;fill:#ffffff;fill-opacity:1;fill-rule:nonzero;stroke:none;stroke-width:0;marker:none;visibility:visible;display:inline;overflow:visible;enable-background:accumulate"
       id="path3002"
       sodipodi:cx="32"
       sodipodi:cy="32"
       sodipodi:rx="32"
       sodipodi:ry="32"
       d="M 64,32 A 32,32 0 1 1 0,32 32,32 0 1 1 64,32 z"
       transform="translate(0,988.36218)" />
    <path
       style="color:#bebebe;fill:#ff0000;fill-opacity:1;fill-rule:nonzero;stroke:none;stroke-width:0;marker:none;visibility:visible;display:inline;overflow:visible;enable-background:accumulate"
       d="M 26 16 L 26 26 L 16 26 L 16 38 L 26 38 L 26 48 L 38 48 L 38 38 L 48 38 L 48 26 L 38 26 L 38 16 L 26 16 z "
       transform="translate(0,988.36218)"
       id="rect3004" />
    <path
       transform="translate(64,988.36218)"
       d="M 32.000001,0 A 32,32 0 1 1 0,31.999999 L 32,32 z"
       sodipodi:ry="32"
       sodipodi:rx="32"
       sodipodi:cy="32"
       sodipodi:cx="32"
       id="path3009"
       style="color:#bebebe;fill:#ffffff;fill-opacity:1;fill-rule:nonzero;stroke:none;stroke-width:0;marker:none;visibility:visible;display:inline;overflow:visible;enable-background:accumulate"
       sodipodi:type="arc"
       sodipodi:start="4.712389"
       sodipodi:end="9.424778" />
    <path
       id="path3011"
       d="m 90,1004.3622 0,10 -10,0 0,12 10,0 0,10 12,0 0,-10 10,0 0,-12 -10,0 0,-10 -12,0 z"
       style="color:#bebebe;fill:#ff0000;fill-opacity:1;fill-rule:nonzero;stroke:none;stroke-width:0;marker:none;visibility:visible;display:inline;overflow:visible;enable-background:accumulate"
       inkscape:connector-curvature="0" />
    <path
       transform="translate(128,988.36218)"
       d="m 32.000001,0 a 32,32 0 0 1 0,64 L 32,32 z"
       sodipodi:ry="32"
       sodipodi:rx="32"
       sodipodi:cy="32"
       sodipodi:cx="32"
       id="path3013"
       style="color:#bebebe;fill:#ffffff;fill-opacity:1;fill-rule:nonzero;stroke:none;stroke-width:0;marker:none;visibility:visible;display:inline;overflow:visible;enable-background:accumulate"
       sodipodi:type="arc"
       sodipodi:start="4.712389"
       sodipodi:end="7.8539816" />
    <path
       id="path3015"
       d="m 154,1004.3622 0,10 -10,0 0,12 10,0 0,10 12,0 0,-10 10,0 0,-12 -10,0 0,-10 -12,0 z"
       style="color:#bebebe;fill:#ff0000;fill-opacity:1;fill-rule:nonzero;stroke:none;stroke-width:0;marker:none;visibility:visible;display:inline;overflow:visible;enable-background:accumulate"
       inkscape:connector-curvature="0" />
    <path
       sodipodi:end="6.2831853"
       sodipodi:start="4.712389"
       sodipodi:type="arc"
       style="color:#bebebe;fill:#008000;fill-opacity:1;fill-rule:nonzero;stroke:none;stroke-width:0;marker:none;visibility:visible;display:inline;overflow:visible;enable-background:accumulate"
       id="path3017"
       sodipodi:cx="32"
       sodipodi:cy="32"
       sodipodi:rx="32"
       sodipodi:ry="32"
       d="M 32.000001,0 A 32,32 0 0 1 64,32 l -32,0 z"
       transform="translate(192,988.36218)" />
    <path
       inkscape:connector-curvature="0"
       style="color:#bebebe;fill:#ff0000;fill-opacity:1;fill-rule:nonzero;stroke:none;stroke-width:0;marker:none;visibility:visible;display:inline;overflow:visible;enable-background:accumulate"
       d="m 218,1004.3622 0,10 -10,0 0,12 10,0 0,10 12,0 0,-10 10,0 0,-12 -10,0 0,-10 -12,0 z"
       id="path3019" />
  </g>
</svg>
