<?xml version="1.0" encoding="UTF-8" standalone="no"?>
<!-- Created with Inkscape (http://www.inkscape.org/) -->

<svg
   xmlns:dc="http://purl.org/dc/elements/1.1/"
   xmlns:cc="http://creativecommons.org/ns#"
   xmlns:rdf="http://www.w3.org/1999/02/22-rdf-syntax-ns#"
   xmlns:svg="http://www.w3.org/2000/svg"
   xmlns="http://www.w3.org/2000/svg"
   xmlns:sodipodi="http://sodipodi.sourceforge.net/DTD/sodipodi-0.dtd"
   xmlns:inkscape="http://www.inkscape.org/namespaces/inkscape"
   width="32"
   height="24"
   id="svg2"
   version="1.1"
   inkscape:version="0.48.4 r9939"
   sodipodi:docname="platform.svg"
   inkscape:export-filename="/home/spencer/Dropbox/Programming/LD 27/res/platform.png"
   inkscape:export-xdpi="90"
   inkscape:export-ydpi="90">
  <defs
     id="defs4" />
  <sodipodi:namedview
     id="base"
     pagecolor="#ffffff"
     bordercolor="#666666"
     borderopacity="1.0"
     inkscape:pageopacity="0.0"
     inkscape:pageshadow="2"
     inkscape:zoom="16"
     inkscape:cx="2.625"
     inkscape:cy="17.973214"
     inkscape:document-units="px"
     inkscape:current-layer="layer1"
     showgrid="false"
     inkscape:snap-bbox="true"
     inkscape:snap-page="false"
     inkscape:snap-bbox-edge-midpoints="true"
     inkscape:bbox-paths="true"
     inkscape:window-width="1370"
     inkscape:window-height="755"
     inkscape:window-x="402"
     inkscape:window-y="247"
     inkscape:window-maximized="0" />
  <metadata
     id="metadata7">
    <rdf:RDF>
      <cc:Work
         rdf:about="">
        <dc:format>image/svg+xml</dc:format>
        <dc:type
           rdf:resource="http://purl.org/dc/dcmitype/StillImage" />
        <dc:title />
      </cc:Work>
    </rdf:RDF>
  </metadata>
  <g
     inkscape:label="Layer 1"
     inkscape:groupmode="layer"
     id="layer1"
     transform="translate(0,-1028.3622)">
    <rect
       style="color:#bebebe;fill:#87aade;fill-opacity:1;fill-rule:nonzero;stroke:none;stroke-width:1;marker:none;visibility:visible;display:inline;overflow:visible;enable-background:accumulate"
       id="rect3773"
       width="32"
       height="8"
       x="0"
       y="1028.3622" />
    <rect
       style="color:#bebebe;fill:#161650;fill-opacity:1;fill-rule:nonzero;stroke:none;stroke-width:1;marker:none;visibility:visible;display:inline;overflow:visible;enable-background:accumulate"
       id="rect2985"
       width="32"
       height="16"
       x="0"
       y="1036.3622" />
    <path
       style="fill:#484884;stroke:none;fill-opacity:1"
       d="m 12,1036.3622 4,0 0,4 -12,12 -4,0 0,-4 z"
       id="path2987"
       inkscape:connector-curvature="0"
       sodipodi:nodetypes="ccccccc" />
    <path
       sodipodi:nodetypes="ccc"
       inkscape:connector-curvature="0"
       id="path3759"
       d="m -0.25,1049.3622 12.5,-12.5 3.25,0"
       style="fill:none;stroke:#212178;stroke-linecap:square;stroke-linejoin:miter;stroke-opacity:1" />
    <path
       sodipodi:nodetypes="ccccccc"
       inkscape:connector-curvature="0"
       id="path3761"
       d="m 4,1036.3622 -4,0 0,4 12,12 4,0 0,-4 z"
       style="fill:#484884;stroke:none;fill-opacity:1" />
    <path
       style="fill:none;stroke:#212178;stroke-linecap:square;stroke-linejoin:miter;stroke-opacity:1"
       d="m 16.25,1049.3622 -12.5,-12.5 -3.25,0"
       id="path3763"
       inkscape:connector-curvature="0"
       sodipodi:nodetypes="ccc" />
    <path
       sodipodi:nodetypes="ccccccc"
       inkscape:connector-curvature="0"
       id="path3765"
       d="m 28,1036.3622 4,0 0,4 -12,12 -4,0 0,-4 z"
       style="fill:#484884;stroke:none;fill-opacity:1" />
    <path
       style="fill:none;stroke:#212178;stroke-linecap:square;stroke-linejoin:miter;stroke-opacity:1"
       d="m 15.75,1049.3622 12.5,-12.5 3.25,0"
       id="path3767"
       inkscape:connector-curvature="0"
       sodipodi:nodetypes="ccc" />
    <path
       style="fill:#484884;stroke:none;fill-opacity:1"
       d="m 20,1036.3622 -4,0 0,4 12,12 4,0 0,-4 z"
       id="path3769"
       inkscape:connector-curvature="0"
       sodipodi:nodetypes="ccccccc" />
    <path
       sodipodi:nodetypes="ccc"
       inkscape:connector-curvature="0"
       id="path3771"
       d="m 32.25,1049.3622 -12.5,-12.5 -3.25,0"
       style="fill:none;stroke:#212178;stroke-linecap:square;stroke-linejoin:miter;stroke-opacity:1" />
    <path
       sodipodi:type="arc"
       style="color:#bebebe;fill:#aa4400;fill-opacity:1;fill-rule:nonzero;stroke:none;stroke-width:1;marker:none;visibility:visible;display:inline;overflow:visible;enable-background:accumulate"
       id="path4119"
       sodipodi:cx="0.984375"
       sodipodi:cy="0.984375"
       sodipodi:rx="1"
       sodipodi:ry="1"
       d="m 1.984375,0.984375 c 0,0.5522847 -0.4477153,1 -1,1 -0.55228475,0 -1,-0.4477153 -1,-1 0,-0.55228475 0.44771525,-1 1,-1 0.5522847,0 1,0.44771525 1,1 z"
       transform="matrix(2,0,0,2,0.03125,1028.3934)" />
    <path
       transform="matrix(2,0,0,2,4.03125,1032.3934)"
       d="m 1.984375,0.984375 c 0,0.5522847 -0.4477153,1 -1,1 -0.55228475,0 -1,-0.4477153 -1,-1 0,-0.55228475 0.44771525,-1 1,-1 0.5522847,0 1,0.44771525 1,1 z"
       sodipodi:ry="1"
       sodipodi:rx="1"
       sodipodi:cy="0.984375"
       sodipodi:cx="0.984375"
       id="path4123"
       style="color:#bebebe;fill:#aa4400;fill-opacity:1;fill-rule:nonzero;stroke:none;stroke-width:1;marker:none;visibility:visible;display:inline;overflow:visible;enable-background:accumulate"
       sodipodi:type="arc" />
    <path
       transform="matrix(2,0,0,2,0.03125,1028.3934)"
       d="m 1.984375,0.984375 a 1,1 0 1 1 -2,0 1,1 0 1 1 2,0 z"
       sodipodi:ry="1"
       sodipodi:rx="1"
       sodipodi:cy="0.984375"
       sodipodi:cx="0.984375"
       id="path3013"
       style="color:#bebebe;fill:#afc6e9;fill-opacity:1;fill-rule:nonzero;stroke:none;stroke-width:1;marker:none;visibility:visible;display:inline;overflow:visible;enable-background:accumulate"
       sodipodi:type="arc" />
    <path
       sodipodi:type="arc"
       style="color:#bebebe;fill:#afc6e9;fill-opacity:1;fill-rule:nonzero;stroke:none;stroke-width:1;marker:none;visibility:visible;display:inline;overflow:visible;enable-background:accumulate"
       id="path3015"
       sodipodi:cx="0.984375"
       sodipodi:cy="0.984375"
       sodipodi:rx="1"
       sodipodi:ry="1"
       d="m 1.984375,0.984375 a 1,1 0 1 1 -2,0 1,1 0 1 1 2,0 z"
       transform="matrix(2,0,0,2,4.03125,1032.3934)" />
    <path
       transform="matrix(2,0,0,2,8.03125,1028.3934)"
       d="m 1.984375,0.984375 c 0,0.5522847 -0.4477153,1 -1,1 -0.55228475,0 -1,-0.4477153 -1,-1 0,-0.55228475 0.44771525,-1 1,-1 0.5522847,0 1,0.44771525 1,1 z"
       sodipodi:ry="1"
       sodipodi:rx="1"
       sodipodi:cy="0.984375"
       sodipodi:cx="0.984375"
       id="path3025"
       style="color:#bebebe;fill:#afc6e9;fill-opacity:1;fill-rule:nonzero;stroke:none;stroke-width:1;marker:none;visibility:visible;display:inline;overflow:visible;enable-background:accumulate"
       sodipodi:type="arc" />
    <path
       sodipodi:type="arc"
       style="color:#bebebe;fill:#afc6e9;fill-opacity:1;fill-rule:nonzero;stroke:none;stroke-width:1;marker:none;visibility:visible;display:inline;overflow:visible;enable-background:accumulate"
       id="path3027"
       sodipodi:cx="0.984375"
       sodipodi:cy="0.984375"
       sodipodi:rx="1"
       sodipodi:ry="1"
       d="m 1.984375,0.984375 c 0,0.5522847 -0.4477153,1 -1,1 -0.55228475,0 -1,-0.4477153 -1,-1 0,-0.55228475 0.44771525,-1 1,-1 0.5522847,0 1,0.44771525 1,1 z"
       transform="matrix(2,0,0,2,12.03125,1032.3934)" />
    <path
       transform="matrix(2,0,0,2,16.03125,1028.3934)"
       d="m 1.984375,0.984375 c 0,0.5522847 -0.4477153,1 -1,1 -0.55228475,0 -1,-0.4477153 -1,-1 0,-0.55228475 0.44771525,-1 1,-1 0.5522847,0 1,0.44771525 1,1 z"
       sodipodi:ry="1"
       sodipodi:rx="1"
       sodipodi:cy="0.984375"
       sodipodi:cx="0.984375"
       id="path3037"
       style="color:#bebebe;fill:#afc6e9;fill-opacity:1;fill-rule:nonzero;stroke:none;stroke-width:1;marker:none;visibility:visible;display:inline;overflow:visible;enable-background:accumulate"
       sodipodi:type="arc" />
    <path
       sodipodi:type="arc"
       style="color:#bebebe;fill:#afc6e9;fill-opacity:1;fill-rule:nonzero;stroke:none;stroke-width:1;marker:none;visibility:visible;display:inline;overflow:visible;enable-background:accumulate"
       id="path3039"
       sodipodi:cx="0.984375"
       sodipodi:cy="0.984375"
       sodipodi:rx="1"
       sodipodi:ry="1"
       d="m 1.984375,0.984375 c 0,0.5522847 -0.4477153,1 -1,1 -0.55228475,0 -1,-0.4477153 -1,-1 0,-0.55228475 0.44771525,-1 1,-1 0.5522847,0 1,0.44771525 1,1 z"
       transform="matrix(2,0,0,2,20.03125,1032.3934)" />
    <path
       transform="matrix(2,0,0,2,24.03125,1028.3934)"
       d="m 1.984375,0.984375 c 0,0.5522847 -0.4477153,1 -1,1 -0.55228475,0 -1,-0.4477153 -1,-1 0,-0.55228475 0.44771525,-1 1,-1 0.5522847,0 1,0.44771525 1,1 z"
       sodipodi:ry="1"
       sodipodi:rx="1"
       sodipodi:cy="0.984375"
       sodipodi:cx="0.984375"
       id="path3049"
       style="color:#bebebe;fill:#afc6e9;fill-opacity:1;fill-rule:nonzero;stroke:none;stroke-width:1;marker:none;visibility:visible;display:inline;overflow:visible;enable-background:accumulate"
       sodipodi:type="arc" />
    <path
       sodipodi:type="arc"
       style="color:#bebebe;fill:#afc6e9;fill-opacity:1;fill-rule:nonzero;stroke:none;stroke-width:1;marker:none;visibility:visible;display:inline;overflow:visible;enable-background:accumulate"
       id="path3051"
       sodipodi:cx="0.984375"
       sodipodi:cy="0.984375"
       sodipodi:rx="1"
       sodipodi:ry="1"
       d="m 1.984375,0.984375 c 0,0.5522847 -0.4477153,1 -1,1 -0.55228475,0 -1,-0.4477153 -1,-1 0,-0.55228475 0.44771525,-1 1,-1 0.5522847,0 1,0.44771525 1,1 z"
       transform="matrix(2,0,0,2,28.03125,1032.3934)" />
  </g>
</svg>
